<svg xmlns="http://www.w3.org/2000/svg" viewBox="0 0 171 56"><path fill="url(#a)" d="M39.505 37.95c-5.938-.388-9.424-4.017-9.553-9.978.13-5.96 3.615-9.59 9.553-9.978 3.873-.26 6.713-3.11 6.584-6.868-.129-3.499-2.969-6.48-6.584-6.48-3.614 0-6.842 2.722-6.584 6.48.258 4.665-1.807 7.386-5.938 8.812-4.131 1.555-8.004.648-11.36-2.073-1.679-1.296-2.324-3.24-2.324-5.314 0-1.296-.13-2.591-.517-3.758-1.033-2.85-4.39-4.535-7.617-3.887-3.098.777-5.293 3.758-5.163 6.868.258 3.37 2.969 6.09 6.454 6.22 4.002.26 7.23 1.814 9.037 5.572.775 1.426 1.033 2.98 1.033 4.406 0 1.426-.387 2.981-1.033 4.407-1.807 3.758-5.035 5.313-9.037 5.572C2.971 38.21.26 40.8.131 44.3c-.259 3.11 2.065 6.09 5.034 6.738 3.228.778 6.584-.907 7.746-4.147.388-1.166.388-2.462.517-3.758 0-2.073.645-4.017 2.323-5.313 3.357-2.721 7.23-3.628 11.36-2.073 4.003 1.555 6.068 4.276 5.94 8.812-.13 3.758 2.969 6.48 6.583 6.48 3.615 0 6.455-2.852 6.584-6.48 0-3.5-2.84-6.48-6.713-6.61Z"></path><path d="M23.236 4.777c-3.743 0-6.841 2.981-6.841 6.61 0 3.628 3.098 6.607 6.712 6.607 3.615 0 6.584-2.85 6.584-6.607 0-3.628-2.84-6.61-6.455-6.61zm127.422.518v22.809h3.873V5.294h-3.873zM59.387 7.238v20.866H63V11.775h.258l6.068 10.496h3.358l6.066-10.496h.129v16.329h3.615V7.238h-5.422l-5.94 10.627h-.257L64.937 7.238h-5.55zm53.316 5.315c-.903 0-1.808.129-2.84.517-1.033.26-2.323.78-3.744 1.557h-.13l-.259-1.815h-3.095v15.292h3.87V17.088c.905-.389 1.678-.647 2.452-.906.775-.26 1.422-.389 2.068-.389.775 0 1.292.129 1.55.518.386.388.515.907.515 1.814v9.979h3.875V16.699c0-1.295-.388-2.332-1.162-3.11-.775-.647-1.809-1.036-3.1-1.036zm14.588 0c-5.034 0-7.615 2.593-7.615 7.906s2.581 7.904 7.615 7.904c.774 0 1.55 0 2.324-.129.774-.13 1.42-.26 1.938-.39v-3.11c-.646.13-1.164.26-1.809.26-.646.13-1.291.129-2.064.129-1.421 0-2.454-.26-3.1-1.037-.645-.778-.902-1.943-.902-3.627 0-1.555.256-2.723.902-3.5.646-.778 1.679-1.166 3.1-1.166.644 0 1.29 0 1.935.129.645 0 1.292.13 1.938.26V13.07c-.646-.259-1.293-.259-2.067-.388-.775-.13-1.421-.13-2.195-.13zm-34.855.129c-1.678 0-3.615.129-5.68.517l.258 2.854c.774-.13 1.678-.261 2.453-.39.775-.13 1.55-.13 2.195-.13.646 0 1.291 0 1.678.13.387.129.775.26 1.033.519.258.259.387.517.516.906s.13.908.13 1.426v.517l-3.617.26c-2.064.13-3.484.649-4.388 1.426-.904.777-1.42 1.814-1.42 3.369 0 1.296.26 2.332 1.033 3.11.775.647 1.809 1.036 3.228 1.036 1.937 0 3.615-.65 5.422-1.945h.258l.387 1.945h3.226V17.865c0-1.814-.645-3.109-1.677-3.886-1.033-.907-2.712-1.297-5.035-1.297zm48.152 0c-1.678 0-3.615.129-5.68.517l.258 2.854c.775-.13 1.68-.261 2.453-.39.774-.13 1.55-.13 2.195-.13.645 0 1.291 0 1.678.13.387.129.775.26 1.033.519.258.259.387.517.516.906s.129.908.129 1.426v.517l-3.613.26c-2.066.13-3.487.648-4.391 1.426-.903.777-1.42 1.814-1.42 3.369 0 1.296.26 2.332 1.033 3.11.774.647 1.809 1.036 3.229 1.036 1.807 0 3.484-.65 5.42-1.945h.26l.386 1.945h3.229V17.865c0-1.814-.647-3.109-1.68-3.886-1.033-.907-2.712-1.297-5.035-1.297zm23.627 0c-1.68 0-3.615.129-5.682.517l.258 2.854c.775-.13 1.68-.261 2.453-.39.775-.13 1.55-.13 2.195-.13.645 0 1.291 0 1.678.13.387.129.774.26 1.033.519.258.259.387.517.516.906s.129.907.129 1.426v.517l-3.613.26c-2.065.13-3.487.648-4.391 1.426-.903.777-1.418 1.814-1.418 3.369 0 1.296.256 2.332 1.031 3.11.774.647 1.809 1.036 3.229 1.036 1.807 0 3.486-.649 5.422-1.945h.257l.387 1.945h3.229V17.865c0-1.814-.648-3.109-1.68-3.886-1.033-.907-2.71-1.297-5.033-1.297zM95.02 21.105v3.11c-.517.388-1.035.649-1.68.908s-1.29.389-1.807.389c-1.29 0-1.937-.649-1.937-1.815 0-.777.259-1.297.646-1.685.388-.389 1.16-.52 2.322-.649l2.456-.258zm48.021 0v3.11c-.516.389-1.032.649-1.678.908-.646.26-1.29.389-1.806.389-1.291 0-1.938-.649-1.938-1.815 0-.777.259-1.297.647-1.685.387-.389 1.16-.52 2.322-.649l2.453-.258zm23.625 0v3.11c-.516.389-1.033.649-1.678.908s-1.29.389-1.806.389c-1.29 0-1.938-.649-1.938-1.815 0-.777.26-1.297.647-1.685.387-.39 1.16-.519 2.324-.649l2.451-.258zm-159.953.13C2.969 21.234 0 24.216 0 27.974c0 3.757 2.97 6.736 6.713 6.736 3.615 0 6.584-2.979 6.584-6.607-.13-3.888-2.97-6.87-6.584-6.87zm32.66 0c-3.615.129-6.453 3.111-6.453 6.74 0 3.628 2.839 6.606 6.453 6.736 3.615.13 6.584-2.85 6.842-6.479v-.517c-.13-3.629-3.227-6.48-6.842-6.48zm63.424 12.312c-.455.015-.698.146-.94.389-.258.258-.386.518-.386.906s.128.647.386.906c.258.26.647.389 1.034.389.517 0 .775-.13 1.033-.389.258-.26.387-.518.387-.906s-.13-.648-.387-.906c-.258-.26-.645-.389-1.033-.39h-.094zm-38.506.258c-1.936 0-3.358.648-4.39 1.814-1.033 1.166-1.55 2.85-1.55 5.053v1.168c0 1.425.26 2.59.776 3.627A5.483 5.483 0 0 0 61.32 47.8c.904.518 2.067.777 3.229.777s2.194-.129 3.097-.517c.904-.39 1.677-.91 2.194-1.557v-5.572h-5.42v1.945h2.969v2.85c-.517.648-1.42.908-2.711.908-1.162 0-2.068-.39-2.713-1.297-.646-.907-1.031-2.074-1.031-3.629v-1.166c0-1.555.257-2.72.902-3.498s1.422-1.168 2.584-1.168c1.678 0 2.71.909 2.969 2.594h2.45c-.128-1.555-.773-2.723-1.677-3.5-1.033-.778-2.322-1.166-3.871-1.166zm57.832 3.5c-1.29 0-2.322.518-3.096 1.554-.774 1.037-1.162 2.333-1.162 4.018 0 1.814.387 3.11 1.291 3.887.774 1.036 1.808 1.554 3.098 1.554 1.162 0 2.065-.388 2.71-1.166v.78c0 .906-.128 1.552-.644 1.941a3.163 3.163 0 0 1-1.935.648c-1.033 0-1.938-.39-2.713-1.296l-1.162 1.427c.387.519.903.907 1.677 1.295.776.39 1.553.52 2.327.52 1.42 0 2.58-.39 3.484-1.168.903-.907 1.291-1.942 1.291-3.367v-10.37h-2.195l-.13 1.038c-.645-.907-1.679-1.295-2.84-1.295zm-45.312.129c-.775 0-1.549.13-2.194.388-.646.26-1.163.648-1.55 1.166-.387.519-.645 1.036-.645 1.684h2.453c0-.389.129-.778.516-1.037.258-.26.774-.387 1.29-.387.646 0 1.164.129 1.423.518.387.259.515.776.515 1.295v.777H77.2c-1.549 0-2.711.26-3.615.908-.903.518-1.291 1.426-1.291 2.592 0 .907.26 1.685 1.033 2.203.646.648 1.548.908 2.58.908 1.162 0 2.067-.39 2.842-1.168 0 .518.129.778.258 1.037h2.324v-.129c-.258-.648-.387-1.427-.387-2.334v-4.794c0-1.166-.387-2.073-1.162-2.721-.774-.648-1.68-.906-2.97-.906zm6.843 0v10.755h2.453v-7.777c.388-.777 1.162-1.164 2.065-1.164 1.291 0 1.937.648 1.937 1.943v6.998h2.454v-7.388c.129-.518.388-.907.775-1.166.258-.26.775-.387 1.29-.387.645 0 1.16.259 1.419.518.258.388.389.906.389 1.554v6.998h2.45V41.32c0-1.295-.385-2.201-.902-2.85-.516-.647-1.42-1.036-2.582-1.036-1.42 0-2.454.647-3.228 1.683-.517-1.166-1.55-1.683-2.969-1.683-1.29 0-2.323.388-3.098 1.295l-.128-1.166v-.13h-2.325zm28.66 0c-1.29 0-2.321.518-3.095 1.425l-.131-1.297h-2.324v10.756h2.455v-7.646c.516-.907 1.29-1.295 2.193-1.295.645 0 1.162.129 1.42.518.258.388.387.907.387 1.554v7h2.453V41.32c0-2.591-1.164-3.886-3.358-3.886zm-10.714.129v10.755h2.453V37.563H101.6zm-78.153.384c-.111-.002-.225 0-.338.004-3.614 0-6.583 2.98-6.584 6.608 0 3.628 3.098 6.74 6.842 6.61 3.615 0 6.584-2.981 6.455-6.74-.125-3.514-2.914-6.42-6.375-6.482zm99.324 1.559c1.032 0 1.677.389 2.194 1.166v4.666c-.517.907-1.29 1.297-2.194 1.297-.775 0-1.42-.26-1.806-.908-.388-.648-.649-1.554-.649-2.59 0-1.296.26-2.205.649-2.723.387-.648 1.031-.908 1.806-.908zM77.2 43.266h1.291v2.072c-.13.388-.517.647-.904.906a2.176 2.176 0 0 1-1.291.389c-.517 0-.904-.13-1.291-.389-.387-.388-.516-.648-.516-1.166 0-.518.258-1.036.645-1.295.516-.388 1.163-.517 2.066-.517z" fill="currentColor"></path><defs><linearGradient id="a" x1="1.965" x2="44.356" y1="6.772" y2="49.002" gradientUnits="userSpaceOnUse"><stop offset=".018" stop-color="#FFCE00"></stop><stop offset=".437" stop-color="#FF1C03"></stop><stop offset="1" stop-color="#DE0021"></stop></linearGradient></defs></svg>
