<svg width="180" height="88" viewBox="0 0 180 88" fill="none" xmlns="http://www.w3.org/2000/svg">
<path d="M166.341 71.6047C165.788 71.6047 165.285 71.58 164.833 71.5303L164.757 71.58C164.824 72.0442 164.875 72.5496 164.908 73.0968C164.925 73.6438 164.925 74.1494 164.908 74.6133H161.641L161.616 68.1237H170.161C170.513 68.8862 170.789 69.7565 170.99 70.7345C171.175 71.6959 171.267 72.9226 171.267 74.4146C171.267 76.4038 170.999 77.9621 170.463 79.0891C169.91 80.2164 169.03 81.012 167.824 81.4762C166.6 81.9403 164.975 82.1724 162.948 82.1724C161.306 82.1724 159.957 81.99 158.901 81.6254C157.846 81.2441 157.033 80.6971 156.463 79.9843C155.877 79.255 155.475 78.3681 155.257 77.3237C155.022 76.2794 154.905 75.0859 154.905 73.7431C154.905 72.9475 154.939 72.1519 155.006 71.3561C155.073 70.5439 155.198 69.7399 155.383 68.9443H158.7L158.751 69.019C158.583 69.715 158.466 70.4112 158.399 71.1074C158.332 71.7871 158.298 72.4752 158.298 73.1712C158.298 74.1825 158.407 75.0694 158.625 75.8318C158.826 76.5778 159.253 77.1581 159.907 77.5723C160.56 77.9868 161.574 78.1939 162.948 78.1939C164.305 78.1939 165.344 78.0864 166.064 77.8709C166.768 77.6388 167.254 77.2159 167.522 76.6027C167.773 75.9727 167.899 75.0775 167.899 73.9174C167.899 73.7681 167.899 73.536 167.899 73.2211C167.882 72.906 167.866 72.5911 167.849 72.2762C167.832 71.9611 167.807 71.7374 167.773 71.6047H166.341ZM170.965 50.9601H171.041V55.187C170.639 55.3032 170.178 55.4441 169.658 55.6099C169.139 55.7589 168.586 55.9248 167.999 56.1072V61.4779C169.172 61.8096 170.186 62.1161 171.041 62.3981V66.625H170.99L155.131 61.5276V56.0575L170.965 50.9601ZM157.997 58.8422C158.851 59.0081 159.89 59.2483 161.113 59.5634C162.336 59.8783 163.585 60.2098 164.858 60.558V57.0022C163.585 57.367 162.336 57.7068 161.113 58.0217C159.89 58.3368 158.851 58.577 157.997 58.7429V58.8422ZM170.236 42.0238C169.331 42.3057 168.368 42.5957 167.346 42.8942C166.324 43.176 165.31 43.4577 164.305 43.7395C163.3 44.0213 162.361 44.2783 161.49 44.5104C160.619 44.7425 159.865 44.9414 159.228 45.107C158.591 45.2729 158.139 45.3888 157.871 45.4553L157.896 45.5546C158.198 45.505 158.6 45.4634 159.103 45.4303C159.588 45.3972 160.108 45.3722 160.661 45.3557C161.197 45.3391 161.691 45.3309 162.144 45.3309H171.041V49.1352H155.131V42.4714C156.019 42.2393 156.958 41.999 157.946 41.7504C158.918 41.4852 159.89 41.2281 160.862 40.9795C161.817 40.7143 162.73 40.4822 163.601 40.2833C164.456 40.0843 165.201 39.9434 165.838 39.8606V39.8109C165.201 39.7279 164.456 39.5954 163.601 39.413C162.747 39.2141 161.834 38.9904 160.862 38.7417C159.89 38.4931 158.918 38.2361 157.946 37.9709C156.958 37.7057 156.019 37.4652 155.131 37.2497V30.6854H171.041V34.44H162.144C161.691 34.44 161.197 34.4318 160.661 34.4153C160.108 34.3985 159.588 34.3737 159.103 34.3406C158.6 34.2909 158.198 34.2494 157.896 34.2163L157.871 34.3157C158.139 34.3819 158.591 34.4981 159.228 34.6639C159.865 34.8295 160.627 35.0369 161.515 35.2855C162.386 35.5176 163.325 35.7744 164.33 36.0561C165.335 36.3381 166.349 36.6281 167.371 36.9266C168.377 37.2084 169.331 37.4818 170.236 37.747V42.0238ZM171.041 27.623H155.131V15.9364H158.399V23.6446H161.415V16.9559H164.682V23.6446H167.773V15.9364H171.041V27.623ZM166.944 14.3499C167.195 13.6205 167.396 12.8248 167.547 11.9629C167.681 11.0843 167.748 10.214 167.748 9.35205C167.748 8.17511 167.698 7.30482 167.597 6.74123C167.48 6.16103 167.304 5.77977 167.07 5.59744C166.835 5.41508 166.533 5.32391 166.165 5.32391C165.846 5.32391 165.595 5.39022 165.411 5.52284C165.226 5.65545 165.084 5.91239 164.984 6.29365C164.866 6.67492 164.774 7.23851 164.707 7.98448L164.556 9.62555C164.439 10.8522 164.179 11.822 163.777 12.5348C163.375 13.231 162.839 13.7283 162.169 14.0266C161.482 14.3085 160.661 14.4494 159.706 14.4494C158.566 14.4494 157.645 14.2256 156.941 13.778C156.237 13.3139 155.726 12.5679 155.408 11.5401C155.073 10.5124 154.905 9.14483 154.905 7.43745C154.905 5.21617 155.198 3.38444 155.785 1.94228L159.203 2.01687L159.303 2.09147C158.717 3.73257 158.424 5.44823 158.424 7.23851C158.424 8.10049 158.474 8.76356 158.575 9.22772C158.658 9.69186 158.801 10.0151 159.002 10.1974C159.203 10.3798 159.488 10.471 159.856 10.471C160.225 10.471 160.502 10.4129 160.686 10.2969C160.87 10.1643 161.013 9.90736 161.113 9.52609C161.197 9.14483 161.281 8.58952 161.364 7.86013L161.54 6.29365C161.691 4.96751 161.959 3.94806 162.345 3.23526C162.73 2.52246 163.249 2.03345 163.903 1.76822C164.54 1.48642 165.319 1.34552 166.24 1.34552C167.363 1.34552 168.301 1.58588 169.055 2.0666C169.792 2.53074 170.345 3.29327 170.714 4.35419C171.082 5.41508 171.267 6.83238 171.267 8.6061C171.267 9.76645 171.208 10.8108 171.091 11.7391C170.957 12.6674 170.781 13.5708 170.563 14.4494H167.019L166.944 14.3499Z" fill="currentColor"/>
<path d="M5.29117 10.5351C5.29117 8.00541 7.36399 5.95471 9.92094 5.95471H138.893C141.45 5.95471 143.523 8.00541 143.523 10.5351V72.6974C143.523 75.2273 141.45 77.2778 138.893 77.2778H114.711V82.5127H138.893C144.372 82.5127 148.814 78.1183 148.814 72.6974V10.5351C148.814 5.11435 144.372 0.719971 138.893 0.719971H9.92094C4.44176 0.719971 0 5.11435 0 10.5351V72.6974C0 78.1183 4.44176 82.5127 9.92094 82.5127H34.1032V77.2778H9.92094C7.36399 77.2778 5.29117 75.2273 5.29117 72.6974V10.5351Z" fill="#FFD900"/>
<path fill-rule="evenodd" clip-rule="evenodd" d="M50.52 19.92H18.4365V62.16H32.264V49.8151H50.52C56.7297 49.8151 61.7636 44.8349 61.7636 38.6913V31.0437C61.7636 24.9002 56.7297 19.92 50.52 19.92ZM32.264 40.2048V29.4657H46.247C48.4388 29.4657 50.2155 31.2235 50.2155 33.3919V36.2786C50.2155 38.447 48.4388 40.2048 46.247 40.2048H32.264Z" fill="currentColor"/>
<path d="M81.2669 19.92H67.4395V62.16H81.2669V19.92Z" fill="currentColor"/>
<path d="M88.3421 19.92H101.935L109.018 32.9148L115.883 19.92H129.341L116.918 40.3773L130.512 62.16H116.646L108.773 48.5889L100.873 62.16H87.0889L100.873 40.1467L88.3421 19.92Z" fill="currentColor"/>
<path d="M37.5234 73.8912V87.2736H42.4722V77.1552L45.9298 85.639C46.3325 86.6268 47.3012 87.2736 48.3778 87.2736H48.7193C49.8229 87.2736 50.81 86.5942 51.1937 85.5706L54.3493 77.1552V87.2736H59.2981V73.8912C59.2981 72.4491 58.1165 71.28 56.6587 71.28H54.2372C53.1182 71.28 52.1207 71.9782 51.7483 73.0222L48.4108 82.3776L44.9224 72.9903C44.5405 71.9628 43.5515 71.28 42.4451 71.28H40.1628C38.7051 71.28 37.5234 72.4491 37.5234 73.8912Z" fill="#FFD900"/>
<path fill-rule="evenodd" clip-rule="evenodd" d="M66.886 71.2798C63.7884 71.2798 61.2773 73.764 61.2773 76.8286V82.051C61.2773 85.1155 63.7884 87.5998 66.886 87.5998H73.1544C76.252 87.5998 78.7631 85.1155 78.7631 82.051V76.8286C78.7631 73.764 76.252 71.2798 73.1544 71.2798H66.886ZM69.1954 75.1966C67.7377 75.1966 66.556 76.3656 66.556 77.8078V81.0718C66.556 82.5139 67.7377 83.683 69.1954 83.683H70.845C72.3027 83.683 73.4844 82.5139 73.4844 81.0718V77.8078C73.4844 76.3656 72.3027 75.1966 70.845 75.1966H69.1954Z" fill="#FFD900"/>
<path d="M83.8892 71.2798H78.5986L84.192 85.8797C84.5886 86.9151 85.5912 87.5998 86.7105 87.5998H88.78C89.8908 87.5998 90.8876 86.9251 91.2901 85.9008L97.0353 71.2798H91.5843L87.7369 82.9368L83.8892 71.2798Z" fill="#FFD900"/>
<path d="M111.426 75.523V71.2798H99.8786C98.4209 71.2798 97.2393 72.4488 97.2393 73.891V84.6622C97.2393 86.1043 98.4209 87.2734 99.8786 87.2734H111.426V83.3566H103.178C102.813 83.3566 102.518 83.0643 102.518 82.7038V81.0718H111.096V77.4814H102.518V76.1758C102.518 75.8153 102.813 75.523 103.178 75.523H111.426Z" fill="#FFD900"/>
</svg>
